<svg width="54" height="18" viewBox="0 0 54 18" fill="none" xmlns="http://www.w3.org/2000/svg">
<path d="M8.65469 17.6646C7.47044 17.6646 6.35537 17.4377 5.30947 16.9839C4.26357 16.5356 3.34219 15.9131 2.54531 15.1162C1.74844 14.3193 1.12311 13.4007 0.669334 12.3604C0.221092 11.3145 -0.00302887 10.1966 -0.00302887 9.00684C-0.00302887 7.82259 0.221092 6.71029 0.669334 5.66992C1.12311 4.62402 1.74567 3.70264 2.53701 2.90576C3.33389 2.10889 4.25527 1.48633 5.30117 1.03809C6.34707 0.58431 7.46214 0.357422 8.64639 0.357422C9.83063 0.357422 10.9457 0.58431 11.9916 1.03809C13.043 1.48633 13.9644 2.10889 14.7558 2.90576C15.5526 3.70264 16.178 4.62402 16.6317 5.66992C17.0855 6.71029 17.3124 7.82259 17.3124 9.00684C17.3124 10.1966 17.0855 11.3145 16.6317 12.3604C16.178 13.4007 15.5526 14.3193 14.7558 15.1162C13.9644 15.9131 13.0458 16.5356 11.9999 16.9839C10.954 17.4377 9.83893 17.6646 8.65469 17.6646ZM4.5956 9.01514C4.5956 9.26969 4.67861 9.47998 4.84463 9.646C5.01064 9.80648 5.2237 9.88672 5.48379 9.88672H7.7748V12.1943C7.7748 12.4489 7.85781 12.6592 8.02383 12.8252C8.18984 12.9912 8.40013 13.0742 8.65469 13.0742C8.90924 13.0742 9.11953 12.9912 9.28555 12.8252C9.45709 12.6592 9.54287 12.4489 9.54287 12.1943V9.88672H11.8422C12.0967 9.88672 12.307 9.80648 12.473 9.646C12.6446 9.47998 12.7304 9.26969 12.7304 9.01514C12.7304 8.75505 12.6474 8.54199 12.4813 8.37598C12.3153 8.20996 12.1023 8.12695 11.8422 8.12695H9.54287V5.82764C9.54287 5.56755 9.45709 5.35449 9.28555 5.18848C9.11953 5.02246 8.90924 4.93945 8.65469 4.93945C8.40013 4.93945 8.18984 5.02246 8.02383 5.18848C7.85781 5.35449 7.7748 5.56755 7.7748 5.82764V8.12695H5.48379C5.2237 8.12695 5.01064 8.20996 4.84463 8.37598C4.67861 8.54199 4.5956 8.75505 4.5956 9.01514ZM23.1198 15L27.3698 3.02197H29.1462V5.24658H28.507L25.361 15H23.1198ZM25.2614 11.9038L25.8176 10.252H31.3127L31.8688 11.9038H25.2614ZM31.7941 15L28.6481 5.24658V3.02197H29.7771L34.0354 15H31.7941ZM38.2506 15.1494C37.498 15.1494 36.8422 14.9613 36.2833 14.585C35.7244 14.2031 35.2927 13.6608 34.9884 12.958C34.684 12.2552 34.5318 11.4279 34.5318 10.4761V10.4595C34.5318 9.49658 34.6812 8.6665 34.9801 7.96924C35.2844 7.26644 35.7133 6.72689 36.2667 6.35059C36.8256 5.96875 37.4869 5.77783 38.2506 5.77783C38.6656 5.77783 39.053 5.84424 39.4127 5.97705C39.7724 6.10433 40.0878 6.28695 40.359 6.5249C40.6357 6.76286 40.8515 7.04508 41.0064 7.37158H41.1559V2.41602H43.2145V15H41.1559V13.5806H41.0064C40.8404 13.9071 40.6218 14.1893 40.3507 14.4272C40.0851 14.6597 39.7752 14.8395 39.421 14.9668C39.0668 15.0885 38.6767 15.1494 38.2506 15.1494ZM38.898 13.4062C39.3684 13.4062 39.7724 13.29 40.11 13.0576C40.4531 12.8197 40.7159 12.4821 40.8985 12.0449C41.0867 11.6022 41.1808 11.0793 41.1808 10.4761V10.4595C41.1808 9.85075 41.0867 9.3278 40.8985 8.89062C40.7159 8.45345 40.4531 8.11589 40.11 7.87793C39.7724 7.63997 39.3684 7.521 38.898 7.521C38.4332 7.521 38.0292 7.63997 37.6861 7.87793C37.3486 8.11035 37.0885 8.44792 36.9059 8.89062C36.7232 9.3278 36.6319 9.85075 36.6319 10.4595V10.4761C36.6319 11.0848 36.7232 11.6077 36.9059 12.0449C37.0885 12.4821 37.3486 12.8197 37.6861 13.0576C38.0237 13.29 38.4277 13.4062 38.898 13.4062ZM48.6914 15.1494C47.9388 15.1494 47.283 14.9613 46.7241 14.585C46.1652 14.2031 45.7336 13.6608 45.4292 12.958C45.1248 12.2552 44.9727 11.4279 44.9727 10.4761V10.4595C44.9727 9.49658 45.1221 8.6665 45.4209 7.96924C45.7253 7.26644 46.1541 6.72689 46.7075 6.35059C47.2664 5.96875 47.9277 5.77783 48.6914 5.77783C49.1064 5.77783 49.4938 5.84424 49.8535 5.97705C50.2132 6.10433 50.5286 6.28695 50.7998 6.5249C51.0765 6.76286 51.2923 7.04508 51.4473 7.37158H51.5967V2.41602H53.6553V15H51.5967V13.5806H51.4473C51.2812 13.9071 51.0627 14.1893 50.7915 14.4272C50.5259 14.6597 50.216 14.8395 49.8618 14.9668C49.5076 15.0885 49.1175 15.1494 48.6914 15.1494ZM49.3389 13.4062C49.8092 13.4062 50.2132 13.29 50.5508 13.0576C50.8939 12.8197 51.1567 12.4821 51.3394 12.0449C51.5275 11.6022 51.6216 11.0793 51.6216 10.4761V10.4595C51.6216 9.85075 51.5275 9.3278 51.3394 8.89062C51.1567 8.45345 50.8939 8.11589 50.5508 7.87793C50.2132 7.63997 49.8092 7.521 49.3389 7.521C48.874 7.521 48.4701 7.63997 48.127 7.87793C47.7894 8.11035 47.5293 8.44792 47.3467 8.89062C47.1641 9.3278 47.0728 9.85075 47.0728 10.4595V10.4761C47.0728 11.0848 47.1641 11.6077 47.3467 12.0449C47.5293 12.4821 47.7894 12.8197 48.127 13.0576C48.4645 13.29 48.8685 13.4062 49.3389 13.4062Z" fill="white"/>
</svg>
