<svg width="19" height="22" viewBox="0 0 19 22" fill="none" xmlns="http://www.w3.org/2000/svg">
<path d="M5.39502 17.3071L3.31982 18.0957C3.18701 18.151 3.06527 18.1206 2.95459 18.0044C2.84391 17.8937 2.81624 17.7692 2.87158 17.6309L3.69336 15.6055L13.231 6.06787L14.9326 7.77783L5.39502 17.3071ZM15.771 6.94775L14.061 5.23779L14.999 4.30811C15.2314 4.08122 15.4722 3.95947 15.7212 3.94287C15.9757 3.92627 16.2082 4.02588 16.4185 4.2417L16.7754 4.59863C16.9912 4.81445 17.0936 5.04688 17.0825 5.2959C17.0715 5.53939 16.9497 5.78011 16.7173 6.01807L15.771 6.94775Z" fill="white"/>
</svg>
