<svg width="16" height="16" viewBox="0 0 16 16" fill="none" xmlns="http://www.w3.org/2000/svg">
<path d="M6.69434 15.4692C6.25163 15.4692 5.87533 15.2783 5.56543 14.8965L1.26562 9.60059C1.14388 9.45671 1.05534 9.31559 1 9.17725C0.950195 9.0389 0.925293 8.89502 0.925293 8.74561C0.925293 8.41357 1.03597 8.13965 1.25732 7.92383C1.47868 7.70801 1.75814 7.6001 2.0957 7.6001C2.47754 7.6001 2.7985 7.76335 3.05859 8.08984L6.66113 12.6553L13.6919 1.51562C13.8358 1.29427 13.9852 1.13932 14.1401 1.05078C14.2951 0.956706 14.4888 0.909668 14.7212 0.909668C15.0588 0.909668 15.3354 1.01481 15.5513 1.2251C15.7671 1.43538 15.875 1.70378 15.875 2.03027C15.875 2.16309 15.8529 2.2959 15.8086 2.42871C15.7643 2.56152 15.6951 2.69987 15.6011 2.84375L7.83154 14.8633C7.56592 15.2673 7.18685 15.4692 6.69434 15.4692Z" fill="white"/>
</svg>
