<svg width="17" height="20" viewBox="0 0 17 20" fill="none" xmlns="http://www.w3.org/2000/svg">
<path d="M5.88086 17.0664C6.08008 17.0664 6.23779 17.0083 6.354 16.8921C6.47575 16.7759 6.53109 16.6265 6.52002 16.4438L6.25439 7.50391C6.25439 7.31576 6.19352 7.16634 6.07178 7.05566C5.95557 6.94499 5.80339 6.88965 5.61523 6.88965C5.41602 6.88965 5.2583 6.94775 5.14209 7.06396C5.02588 7.17464 4.97331 7.32406 4.98438 7.51221L5.2334 16.4521C5.24447 16.6403 5.30811 16.7897 5.42432 16.9004C5.54053 17.0111 5.69271 17.0664 5.88086 17.0664ZM8.4375 17.0664C8.63118 17.0664 8.7889 17.0111 8.91064 16.9004C9.03239 16.7897 9.09326 16.6403 9.09326 16.4521V7.50391C9.09326 7.31576 9.03239 7.16634 8.91064 7.05566C8.7889 6.94499 8.63118 6.88965 8.4375 6.88965C8.24935 6.88965 8.0944 6.94499 7.97266 7.05566C7.85091 7.16634 7.79004 7.31576 7.79004 7.50391V16.4521C7.79004 16.6403 7.85091 16.7897 7.97266 16.9004C8.0944 17.0111 8.24935 17.0664 8.4375 17.0664ZM11.0024 17.0664C11.1906 17.0664 11.3428 17.0111 11.459 16.9004C11.5752 16.7897 11.6388 16.6403 11.6499 16.4521L11.8989 7.51221C11.9045 7.32406 11.8491 7.17464 11.7329 7.06396C11.6222 6.94775 11.4673 6.88965 11.2681 6.88965C11.0799 6.88965 10.925 6.94499 10.8032 7.05566C10.687 7.16634 10.6261 7.31576 10.6206 7.50391L10.3633 16.4438C10.3577 16.632 10.4131 16.7842 10.5293 16.9004C10.6455 17.0111 10.8032 17.0664 11.0024 17.0664ZM4.56934 4.59863V2.83887C4.56934 2.18587 4.76855 1.67676 5.16699 1.31152C5.57096 0.946289 6.13265 0.763672 6.85205 0.763672H10.0146C10.734 0.763672 11.293 0.946289 11.6914 1.31152C12.0954 1.67676 12.2974 2.18587 12.2974 2.83887V4.59863H10.604V2.91357C10.604 2.71989 10.5376 2.56494 10.4048 2.44873C10.2775 2.32699 10.106 2.26611 9.89014 2.26611H6.97656C6.76074 2.26611 6.58643 2.32699 6.45361 2.44873C6.32633 2.56494 6.2627 2.71989 6.2627 2.91357V4.59863H4.56934ZM0.966797 5.68604C0.739909 5.68604 0.546224 5.60856 0.385742 5.45361C0.22526 5.29867 0.14502 5.10498 0.14502 4.87256C0.14502 4.64567 0.22526 4.45475 0.385742 4.2998C0.546224 4.14486 0.739909 4.06738 0.966797 4.06738H15.9165C16.1434 4.06738 16.3343 4.14486 16.4893 4.2998C16.6497 4.44922 16.73 4.64014 16.73 4.87256C16.73 5.10498 16.6525 5.29867 16.4976 5.45361C16.3426 5.60856 16.1489 5.68604 15.9165 5.68604H0.966797ZM4.61914 19.6812C3.94954 19.6812 3.41553 19.4958 3.01709 19.125C2.61865 18.7542 2.4056 18.234 2.37793 17.5645L1.81348 5.51172H15.0698L14.5054 17.5562C14.4777 18.2313 14.2619 18.7542 13.8579 19.125C13.4595 19.4958 12.9282 19.6812 12.2642 19.6812H4.61914Z" fill="white"/>
</svg>
