<svg width="75" height="40" viewBox="0 0 75 40" fill="none" xmlns="http://www.w3.org/2000/svg">
<path d="M8.4082 38.1758C7.74089 38.1758 7.16471 38.026 6.67969 37.7266C6.19792 37.4271 5.8252 37.0023 5.56152 36.4521C5.30111 35.8988 5.1709 35.2428 5.1709 34.4844V34.4746C5.1709 33.7129 5.30111 33.057 5.56152 32.5068C5.8252 31.9535 6.19792 31.527 6.67969 31.2275C7.16146 30.9281 7.736 30.7783 8.40332 30.7783C8.93717 30.7783 9.41895 30.8841 9.84863 31.0957C10.2783 31.304 10.6283 31.5938 10.8984 31.9648C11.1686 32.3327 11.3314 32.7559 11.3867 33.2344L11.3818 33.2734H10.1514L10.1465 33.249C10.0879 32.9723 9.97721 32.7314 9.81445 32.5264C9.65169 32.318 9.44987 32.1569 9.20898 32.043C8.9681 31.9258 8.69954 31.8672 8.40332 31.8672C8.00618 31.8672 7.66113 31.973 7.36816 32.1846C7.0752 32.3962 6.84896 32.6973 6.68945 33.0879C6.5332 33.4753 6.45508 33.9359 6.45508 34.4697V34.4795C6.45508 35.0133 6.5332 35.4756 6.68945 35.8662C6.84896 36.2568 7.0752 36.5579 7.36816 36.7695C7.66113 36.9811 8.00781 37.0869 8.4082 37.0869C8.70768 37.0869 8.97624 37.0348 9.21387 36.9307C9.45475 36.8265 9.65495 36.68 9.81445 36.4912C9.97721 36.2992 10.0879 36.0745 10.1465 35.8174L10.1562 35.7881H11.3867V35.8271C11.3249 36.2959 11.1605 36.7061 10.8936 37.0576C10.6266 37.4092 10.2816 37.6842 9.8584 37.8828C9.43522 38.0781 8.95182 38.1758 8.4082 38.1758ZM14.9707 38.1074C14.4401 38.1074 13.9827 37.9967 13.5986 37.7754C13.2145 37.5508 12.9183 37.2318 12.71 36.8184C12.5049 36.4049 12.4023 35.9102 12.4023 35.334V35.3242C12.4023 34.7546 12.5065 34.263 12.7148 33.8496C12.9232 33.4329 13.2178 33.1139 13.5986 32.8926C13.9827 32.6712 14.4401 32.5605 14.9707 32.5605C15.5013 32.5605 15.957 32.6712 16.3379 32.8926C16.722 33.1139 17.0182 33.4313 17.2266 33.8447C17.4349 34.2581 17.5391 34.7513 17.5391 35.3242V35.334C17.5391 35.9102 17.4349 36.4049 17.2266 36.8184C17.0215 37.2318 16.7269 37.5508 16.3428 37.7754C15.9619 37.9967 15.5046 38.1074 14.9707 38.1074ZM14.9707 37.1211C15.2507 37.1211 15.4883 37.0511 15.6836 36.9111C15.8822 36.7679 16.0335 36.5645 16.1377 36.3008C16.2419 36.0339 16.2939 35.7132 16.2939 35.3389V35.3291C16.2939 34.9515 16.2419 34.6309 16.1377 34.3672C16.0335 34.1003 15.8822 33.8968 15.6836 33.7568C15.4883 33.6136 15.2507 33.542 14.9707 33.542C14.6908 33.542 14.4515 33.6136 14.2529 33.7568C14.0544 33.8968 13.903 34.1003 13.7988 34.3672C13.6947 34.6309 13.6426 34.9515 13.6426 35.3291V35.3389C13.6426 35.7132 13.6947 36.0339 13.7988 36.3008C13.903 36.5677 14.0527 36.7712 14.248 36.9111C14.4466 37.0511 14.6875 37.1211 14.9707 37.1211ZM18.7598 38V32.6631H19.9756V33.4932H20.0586C20.1725 33.1969 20.3564 32.9674 20.6104 32.8047C20.8675 32.6419 21.1719 32.5605 21.5234 32.5605C21.7643 32.5605 21.9808 32.5996 22.1729 32.6777C22.3682 32.7559 22.5358 32.8665 22.6758 33.0098C22.8158 33.153 22.9232 33.3239 22.998 33.5225H23.0859C23.1738 33.3304 23.2959 33.1628 23.4521 33.0195C23.6117 32.873 23.7972 32.7607 24.0088 32.6826C24.2236 32.6012 24.4548 32.5605 24.7021 32.5605C25.0602 32.5605 25.3662 32.6322 25.6201 32.7754C25.8773 32.9154 26.0742 33.1172 26.2109 33.3809C26.3509 33.6445 26.4209 33.9603 26.4209 34.3281V38H25.2051V34.626C25.2051 34.3916 25.1693 34.1979 25.0977 34.0449C25.0293 33.8919 24.9235 33.7764 24.7803 33.6982C24.637 33.6201 24.4564 33.5811 24.2383 33.5811C24.0267 33.5811 23.8428 33.6299 23.6865 33.7275C23.5303 33.8219 23.4082 33.9505 23.3203 34.1133C23.2357 34.276 23.1934 34.46 23.1934 34.665V38H21.9775V34.5381C21.9775 34.3395 21.9385 34.1686 21.8604 34.0254C21.7855 33.8822 21.6748 33.7731 21.5283 33.6982C21.3851 33.6201 21.2142 33.5811 21.0156 33.5811C20.8171 33.5811 20.638 33.6331 20.4785 33.7373C20.3223 33.8382 20.1986 33.9782 20.1074 34.1572C20.0195 34.333 19.9756 34.5316 19.9756 34.7529V38H18.7598ZM27.8516 39.7725V32.6631H29.0674V33.498H29.1504C29.248 33.306 29.375 33.1416 29.5312 33.0049C29.6908 32.8682 29.8747 32.7624 30.083 32.6875C30.2913 32.6126 30.5208 32.5752 30.7715 32.5752C31.2174 32.5752 31.6032 32.6875 31.9287 32.9121C32.2575 33.1367 32.5114 33.4557 32.6904 33.8691C32.8727 34.2793 32.9639 34.766 32.9639 35.3291V35.3389C32.9639 35.9053 32.8743 36.3936 32.6953 36.8037C32.5163 37.2139 32.2624 37.5312 31.9336 37.7559C31.6081 37.9772 31.2207 38.0879 30.7715 38.0879C30.5273 38.0879 30.2995 38.0505 30.0879 37.9756C29.8763 37.8975 29.6908 37.7884 29.5312 37.6484C29.3717 37.5085 29.2448 37.3424 29.1504 37.1504H29.0674V39.7725H27.8516ZM30.3906 37.0625C30.6673 37.0625 30.9049 36.9941 31.1035 36.8574C31.3021 36.7174 31.4551 36.5189 31.5625 36.2617C31.6699 36.0013 31.7236 35.6937 31.7236 35.3389V35.3291C31.7236 34.9678 31.6699 34.6585 31.5625 34.4014C31.4551 34.1442 31.3021 33.9473 31.1035 33.8105C30.9049 33.6706 30.6673 33.6006 30.3906 33.6006C30.1139 33.6006 29.8747 33.6706 29.6729 33.8105C29.4743 33.9473 29.3197 34.1442 29.209 34.4014C29.1016 34.6585 29.0479 34.9661 29.0479 35.3242V35.334C29.0479 35.6921 29.1016 36.0013 29.209 36.2617C29.3197 36.5189 29.4759 36.7174 29.6777 36.8574C29.8796 36.9941 30.1172 37.0625 30.3906 37.0625ZM36.4746 38.1074C35.944 38.1074 35.4883 37.9951 35.1074 37.7705C34.7298 37.5459 34.4385 37.2269 34.2334 36.8135C34.0283 36.4001 33.9258 35.9102 33.9258 35.3438V35.3389C33.9258 34.779 34.0267 34.2907 34.2285 33.874C34.4336 33.4574 34.7233 33.1351 35.0977 32.9072C35.472 32.6761 35.9115 32.5605 36.416 32.5605C36.9238 32.5605 37.36 32.6729 37.7246 32.8975C38.0924 33.1188 38.3757 33.4297 38.5742 33.8301C38.7728 34.2305 38.8721 34.6992 38.8721 35.2363V35.6367H34.5361V34.8213H38.2764L37.7002 35.583V35.0996C37.7002 34.7448 37.6465 34.4502 37.5391 34.2158C37.4316 33.9814 37.2819 33.8057 37.0898 33.6885C36.901 33.5713 36.6813 33.5127 36.4307 33.5127C36.18 33.5127 35.957 33.5745 35.7617 33.6982C35.5697 33.8187 35.4167 33.9977 35.3027 34.2354C35.1921 34.4697 35.1367 34.7578 35.1367 35.0996V35.5879C35.1367 35.9167 35.1921 36.1982 35.3027 36.4326C35.4134 36.6637 35.5697 36.8428 35.7715 36.9697C35.9766 37.0934 36.2191 37.1553 36.499 37.1553C36.7171 37.1553 36.9043 37.1243 37.0605 37.0625C37.2201 36.9974 37.3486 36.9209 37.4463 36.833C37.5439 36.7419 37.6123 36.6556 37.6514 36.5742L37.666 36.54H38.8184L38.8086 36.584C38.7663 36.7565 38.6882 36.9323 38.5742 37.1113C38.4635 37.2871 38.3122 37.4515 38.1201 37.6045C37.9313 37.7542 37.7002 37.8763 37.4268 37.9707C37.1533 38.0618 36.8359 38.1074 36.4746 38.1074ZM42.1875 38.0244C41.5755 38.0244 41.1344 37.9121 40.8643 37.6875C40.5941 37.4629 40.459 37.0951 40.459 36.584V33.6055H39.6289V32.6631H40.459V31.3545H41.6943V32.6631H42.8174V33.6055H41.6943V36.2959C41.6943 36.5596 41.7497 36.7533 41.8604 36.877C41.9743 36.9974 42.1566 37.0576 42.4072 37.0576C42.4951 37.0576 42.5667 37.056 42.6221 37.0527C42.6807 37.0462 42.7458 37.0397 42.8174 37.0332V37.9707C42.7327 37.987 42.6351 38 42.5244 38.0098C42.417 38.0195 42.3047 38.0244 42.1875 38.0244ZM44.0479 38V32.6631H45.2588V38H44.0479ZM44.6582 31.7695C44.4596 31.7695 44.2887 31.6995 44.1455 31.5596C44.0023 31.4196 43.9307 31.252 43.9307 31.0566C43.9307 30.8548 44.0023 30.6855 44.1455 30.5488C44.2887 30.4089 44.4596 30.3389 44.6582 30.3389C44.8568 30.3389 45.026 30.4089 45.166 30.5488C45.3092 30.6855 45.3809 30.8548 45.3809 31.0566C45.3809 31.252 45.3092 31.4196 45.166 31.5596C45.026 31.6995 44.8568 31.7695 44.6582 31.7695ZM48.8574 38.0244C48.2454 38.0244 47.8044 37.9121 47.5342 37.6875C47.264 37.4629 47.1289 37.0951 47.1289 36.584V33.6055H46.2988V32.6631H47.1289V31.3545H48.3643V32.6631H49.4873V33.6055H48.3643V36.2959C48.3643 36.5596 48.4196 36.7533 48.5303 36.877C48.6442 36.9974 48.8265 37.0576 49.0771 37.0576C49.165 37.0576 49.2367 37.056 49.292 37.0527C49.3506 37.0462 49.4157 37.0397 49.4873 37.0332V37.9707C49.4027 37.987 49.305 38 49.1943 38.0098C49.0869 38.0195 48.9746 38.0244 48.8574 38.0244ZM50.7178 38V32.6631H51.9287V38H50.7178ZM51.3281 31.7695C51.1296 31.7695 50.9587 31.6995 50.8154 31.5596C50.6722 31.4196 50.6006 31.252 50.6006 31.0566C50.6006 30.8548 50.6722 30.6855 50.8154 30.5488C50.9587 30.4089 51.1296 30.3389 51.3281 30.3389C51.5267 30.3389 51.696 30.4089 51.8359 30.5488C51.9792 30.6855 52.0508 30.8548 52.0508 31.0566C52.0508 31.252 51.9792 31.4196 51.8359 31.5596C51.696 31.6995 51.5267 31.7695 51.3281 31.7695ZM55.7324 38.1074C55.2018 38.1074 54.7445 37.9967 54.3604 37.7754C53.9762 37.5508 53.68 37.2318 53.4717 36.8184C53.2666 36.4049 53.1641 35.9102 53.1641 35.334V35.3242C53.1641 34.7546 53.2682 34.263 53.4766 33.8496C53.6849 33.4329 53.9795 33.1139 54.3604 32.8926C54.7445 32.6712 55.2018 32.5605 55.7324 32.5605C56.263 32.5605 56.7188 32.6712 57.0996 32.8926C57.4837 33.1139 57.7799 33.4313 57.9883 33.8447C58.1966 34.2581 58.3008 34.7513 58.3008 35.3242V35.334C58.3008 35.9102 58.1966 36.4049 57.9883 36.8184C57.7832 37.2318 57.4886 37.5508 57.1045 37.7754C56.7236 37.9967 56.2663 38.1074 55.7324 38.1074ZM55.7324 37.1211C56.0124 37.1211 56.25 37.0511 56.4453 36.9111C56.6439 36.7679 56.7952 36.5645 56.8994 36.3008C57.0036 36.0339 57.0557 35.7132 57.0557 35.3389V35.3291C57.0557 34.9515 57.0036 34.6309 56.8994 34.3672C56.7952 34.1003 56.6439 33.8968 56.4453 33.7568C56.25 33.6136 56.0124 33.542 55.7324 33.542C55.4525 33.542 55.2132 33.6136 55.0146 33.7568C54.8161 33.8968 54.6647 34.1003 54.5605 34.3672C54.4564 34.6309 54.4043 34.9515 54.4043 35.3291V35.3389C54.4043 35.7132 54.4564 36.0339 54.5605 36.3008C54.6647 36.5677 54.8145 36.7712 55.0098 36.9111C55.2083 37.0511 55.4492 37.1211 55.7324 37.1211ZM59.5215 38V32.6631H60.7373V33.4834H60.8203C60.9473 33.1937 61.1393 32.9674 61.3965 32.8047C61.6536 32.6419 61.9743 32.5605 62.3584 32.5605C62.9541 32.5605 63.4098 32.7331 63.7256 33.0781C64.0413 33.4232 64.1992 33.9131 64.1992 34.5479V38H62.9834V34.8311C62.9834 34.4144 62.8955 34.1019 62.7197 33.8936C62.5472 33.6852 62.277 33.5811 61.9092 33.5811C61.6683 33.5811 61.46 33.6348 61.2842 33.7422C61.1084 33.8496 60.9733 34.001 60.8789 34.1963C60.7845 34.3916 60.7373 34.6227 60.7373 34.8896V38H59.5215ZM67.6514 38.1074C67.1989 38.1074 66.8083 38.0439 66.4795 37.917C66.154 37.7868 65.8968 37.6077 65.708 37.3799C65.5192 37.1488 65.4069 36.8818 65.3711 36.5791V36.5693H66.5771L66.582 36.5791C66.6471 36.7646 66.7692 36.916 66.9482 37.0332C67.1273 37.1504 67.3682 37.209 67.6709 37.209C67.8727 37.209 68.0501 37.1813 68.2031 37.126C68.3561 37.0674 68.4766 36.9876 68.5645 36.8867C68.6523 36.7858 68.6963 36.6686 68.6963 36.5352V36.5254C68.6963 36.3691 68.6328 36.2389 68.5059 36.1348C68.3789 36.0273 68.1689 35.9411 67.876 35.876L67.0117 35.6807C66.6732 35.6058 66.3932 35.5016 66.1719 35.3682C65.9505 35.2347 65.7845 35.0703 65.6738 34.875C65.5664 34.6797 65.5127 34.4518 65.5127 34.1914V34.1865C65.5127 33.8643 65.6022 33.5811 65.7812 33.3369C65.9635 33.0928 66.2158 32.9023 66.5381 32.7656C66.8604 32.6289 67.2314 32.5605 67.6514 32.5605C68.0843 32.5605 68.457 32.6257 68.7695 32.7559C69.082 32.8861 69.3262 33.0651 69.502 33.293C69.6777 33.5208 69.7786 33.7796 69.8047 34.0693V34.0791H68.6621L68.6572 34.0645C68.6117 33.8952 68.5026 33.752 68.3301 33.6348C68.1608 33.5143 67.9329 33.4541 67.6465 33.4541C67.4674 33.4541 67.3063 33.4818 67.1631 33.5371C67.0231 33.5924 66.9124 33.6706 66.8311 33.7715C66.7529 33.8691 66.7139 33.9847 66.7139 34.1182V34.123C66.7139 34.2272 66.7399 34.3184 66.792 34.3965C66.8473 34.4746 66.9336 34.543 67.0508 34.6016C67.168 34.6602 67.3226 34.7122 67.5146 34.7578L68.3789 34.9482C68.903 35.0654 69.2904 35.2396 69.541 35.4707C69.7917 35.7018 69.917 36.0127 69.917 36.4033V36.4131C69.917 36.7516 69.8193 37.0479 69.624 37.3018C69.4287 37.5557 69.1602 37.7542 68.8184 37.8975C68.4766 38.0374 68.0876 38.1074 67.6514 38.1074Z" fill="#838B91"/>
<path d="M32.4902 4.73926C32.127 4.73926 31.7959 4.65137 31.4971 4.47559C31.2041 4.2998 30.9668 4.06543 30.7852 3.77246C30.6094 3.47363 30.5215 3.14258 30.5215 2.7793C30.5215 2.41016 30.6094 2.07617 30.7852 1.77734C30.9668 1.47852 31.2041 1.24121 31.4971 1.06543C31.7959 0.889648 32.127 0.801758 32.4902 0.801758C32.8535 0.801758 33.1846 0.889648 33.4834 1.06543C33.7822 1.24121 34.0195 1.47852 34.1953 1.77734C34.377 2.07617 34.4678 2.41016 34.4678 2.7793C34.4678 3.14258 34.377 3.47363 34.1953 3.77246C34.0195 4.06543 33.7822 4.2998 33.4834 4.47559C33.1846 4.65137 32.8535 4.73926 32.4902 4.73926ZM42.4922 4.74805C42.123 4.74805 41.7891 4.66016 41.4902 4.48438C41.1914 4.30859 40.9541 4.07129 40.7783 3.77246C40.6025 3.47363 40.5146 3.14258 40.5146 2.7793C40.5146 2.41602 40.6025 2.08496 40.7783 1.78613C40.9541 1.4873 41.1914 1.25 41.4902 1.07422C41.7891 0.898438 42.123 0.810547 42.4922 0.810547C42.8496 0.810547 43.1777 0.898438 43.4766 1.07422C43.7754 1.25 44.0127 1.4873 44.1885 1.78613C44.3643 2.08496 44.4521 2.41602 44.4521 2.7793C44.4521 3.14258 44.3643 3.47363 44.1885 3.77246C44.0127 4.07129 43.7754 4.30859 43.4766 4.48438C43.1777 4.66016 42.8496 4.74805 42.4922 4.74805ZM32.4814 13.1152C32.3115 13.1152 32.1826 13.1797 32.0947 13.3086C32.0068 13.4375 31.9072 13.6631 31.7959 13.9854C31.7373 14.1611 31.6582 14.4365 31.5586 14.8115C31.459 15.1807 31.3477 15.5996 31.2246 16.0684C31.1074 16.5312 30.9902 17 30.873 17.4746C30.7559 17.9492 30.6445 18.3828 30.5391 18.7754C30.4395 19.1738 30.3604 19.4814 30.3018 19.6982C30.1553 20.2373 29.8594 20.5068 29.4141 20.5068C29.1211 20.5068 28.8955 20.3926 28.7373 20.1641C28.5791 19.9355 28.5439 19.6777 28.6318 19.3906C28.6436 19.3496 28.6816 19.1826 28.7461 18.8896C28.8164 18.6025 28.9043 18.2363 29.0098 17.791C29.1152 17.3457 29.2266 16.8652 29.3438 16.3496C29.4668 15.834 29.584 15.3301 29.6953 14.8379C29.8066 14.3398 29.9033 13.8975 29.9854 13.5107C30.0674 13.1182 30.126 12.8311 30.1611 12.6494C30.208 12.3623 30.2461 12.0137 30.2754 11.6035C30.3047 11.1875 30.3252 10.7598 30.3369 10.3203C30.3486 9.88086 30.3545 9.47656 30.3545 9.10742C30.3604 8.73828 30.3633 8.45996 30.3633 8.27246C30.3516 8.01465 30.2842 7.80371 30.1611 7.63965C30.0439 7.46973 29.8857 7.36719 29.6865 7.33203C29.5986 7.31445 29.4111 7.28809 29.124 7.25293C28.8428 7.21191 28.5117 7.16504 28.1309 7.1123C27.7559 7.05957 27.375 7.00684 26.9883 6.9541C26.6074 6.90137 26.2705 6.85449 25.9775 6.81348C25.6846 6.77246 25.4883 6.74023 25.3887 6.7168C25.1895 6.66992 25.0312 6.56738 24.9141 6.40918C24.7969 6.25098 24.7383 6.06348 24.7383 5.84668C24.7383 5.58887 24.8174 5.38379 24.9756 5.23145C25.1338 5.07324 25.3154 4.99414 25.5205 4.99414C25.5908 4.99414 25.6611 5 25.7314 5.01172C25.8076 5.02344 25.8838 5.03809 25.96 5.05566C26.3115 5.13184 26.7451 5.19922 27.2607 5.25781C27.7822 5.31641 28.3447 5.37207 28.9482 5.4248C29.5576 5.47168 30.167 5.5127 30.7764 5.54785C31.3857 5.58301 31.9541 5.6123 32.4814 5.63574C33.0967 5.65332 33.7119 5.6709 34.3271 5.68848C34.9482 5.7002 35.5342 5.71191 36.085 5.72363C36.6416 5.72949 37.125 5.73242 37.5352 5.73242C37.9395 5.73242 38.4111 5.72949 38.9502 5.72363C39.4951 5.71191 40.0693 5.7002 40.6729 5.68848C41.2822 5.6709 41.8857 5.65332 42.4834 5.63574C43.0166 5.6123 43.5879 5.58301 44.1973 5.54785C44.8125 5.50684 45.4219 5.46289 46.0254 5.41602C46.6348 5.36328 47.1973 5.30762 47.7129 5.24902C48.2285 5.19043 48.6592 5.12598 49.0049 5.05566C49.0869 5.03809 49.1631 5.02344 49.2334 5.01172C49.3096 5 49.3857 4.99414 49.4619 4.99414C49.6553 4.99414 49.834 5.07324 49.998 5.23145C50.168 5.38379 50.2529 5.58887 50.2529 5.84668C50.2529 6.05762 50.1914 6.23926 50.0684 6.3916C49.9453 6.54395 49.7871 6.65234 49.5938 6.7168C49.5 6.74609 49.3066 6.78418 49.0137 6.83105C48.7207 6.87207 48.3809 6.91895 47.9941 6.97168C47.6133 7.01855 47.2324 7.06836 46.8516 7.12109C46.4707 7.16797 46.1367 7.21191 45.8496 7.25293C45.5625 7.28809 45.3779 7.31445 45.2959 7.33203C44.8623 7.43164 44.6455 7.74512 44.6455 8.27246C44.6455 8.45996 44.6455 8.73828 44.6455 9.10742C44.6455 9.47656 44.6484 9.88086 44.6543 10.3203C44.666 10.7598 44.6836 11.1875 44.707 11.6035C44.7305 12.0195 44.7627 12.3682 44.8037 12.6494C44.833 12.8369 44.8887 13.124 44.9707 13.5107C45.0586 13.8975 45.1582 14.3398 45.2695 14.8379C45.3809 15.3301 45.498 15.834 45.6211 16.3496C45.7441 16.8652 45.8584 17.3457 45.9639 17.791C46.0693 18.2363 46.1543 18.6025 46.2188 18.8896C46.2891 19.1826 46.3301 19.3496 46.3418 19.3906C46.418 19.6836 46.3799 19.9414 46.2275 20.1641C46.0752 20.3926 45.8525 20.5068 45.5596 20.5068C45.3428 20.5068 45.1582 20.4424 45.0059 20.3135C44.8594 20.1846 44.751 19.9795 44.6807 19.6982C44.6279 19.4814 44.5518 19.1738 44.4521 18.7754C44.3525 18.377 44.2412 17.9404 44.1182 17.4658C44.001 16.9912 43.8809 16.5195 43.7578 16.0508C43.6406 15.582 43.5322 15.166 43.4326 14.8027C43.333 14.4336 43.2539 14.1582 43.1953 13.9766C43.0957 13.6543 42.9961 13.4316 42.8965 13.3086C42.8027 13.1797 42.668 13.1152 42.4922 13.1152C42.3164 13.1152 42.1816 13.1797 42.0879 13.3086C42 13.4375 41.9033 13.6631 41.7979 13.9854C41.7451 14.1611 41.666 14.4365 41.5605 14.8115C41.4609 15.1807 41.3525 15.5996 41.2354 16.0684C41.1182 16.5312 40.998 17 40.875 17.4746C40.7578 17.9492 40.6465 18.3828 40.541 18.7754C40.4414 19.1738 40.3623 19.4814 40.3037 19.6982C40.1572 20.2373 39.8613 20.5068 39.416 20.5068C39.123 20.5068 38.8975 20.3926 38.7393 20.1641C38.5869 19.9355 38.5488 19.6777 38.625 19.3906C38.6367 19.3496 38.6777 19.1826 38.748 18.8896C38.8184 18.6025 38.9062 18.2363 39.0117 17.791C39.1172 17.3457 39.2285 16.8652 39.3457 16.3496C39.4688 15.834 39.5859 15.3301 39.6973 14.8379C39.8145 14.3398 39.9141 13.8975 39.9961 13.5107C40.0781 13.1182 40.1338 12.8311 40.1631 12.6494C40.21 12.3623 40.2451 12.0137 40.2686 11.6035C40.2979 11.1875 40.3184 10.7627 40.3301 10.3291C40.3477 9.89551 40.3564 9.49707 40.3564 9.13379C40.3623 8.77051 40.3623 8.50098 40.3564 8.3252C40.3506 8.03223 40.2803 7.80957 40.1455 7.65723C40.0107 7.49902 39.8145 7.39941 39.5566 7.3584C39.2988 7.31738 38.9854 7.28809 38.6162 7.27051C38.2529 7.24707 37.8809 7.23535 37.5 7.23535C37.1367 7.23535 36.7646 7.24707 36.3838 7.27051C36.0088 7.28809 35.6953 7.31738 35.4434 7.3584C35.1855 7.39941 34.9893 7.49902 34.8545 7.65723C34.7197 7.80957 34.6465 8.03223 34.6348 8.3252C34.6348 8.50098 34.6348 8.77051 34.6348 9.13379C34.6348 9.49707 34.6406 9.89551 34.6523 10.3291C34.6641 10.7627 34.6816 11.1875 34.7051 11.6035C34.7285 12.0195 34.7637 12.3682 34.8105 12.6494C34.834 12.8369 34.8867 13.124 34.9688 13.5107C35.0508 13.8975 35.1475 14.3398 35.2588 14.8379C35.376 15.3301 35.4932 15.834 35.6104 16.3496C35.7334 16.8652 35.8477 17.3457 35.9531 17.791C36.0645 18.2363 36.1553 18.6025 36.2256 18.8896C36.2959 19.1826 36.334 19.3496 36.3398 19.3906C36.416 19.6836 36.3779 19.9414 36.2256 20.1641C36.0732 20.3926 35.8477 20.5068 35.5488 20.5068C35.0977 20.5068 34.8076 20.2373 34.6787 19.6982C34.626 19.4814 34.5498 19.1738 34.4502 18.7754C34.3506 18.377 34.2393 17.9404 34.1162 17.4658C33.999 16.9912 33.8789 16.5195 33.7559 16.0508C33.6328 15.582 33.5215 15.166 33.4219 14.8027C33.3223 14.4336 33.2461 14.1582 33.1934 13.9766C33.0996 13.6543 33.0029 13.4316 32.9033 13.3086C32.8037 13.1797 32.6631 13.1152 32.4814 13.1152Z" fill="#838B91"/>
</svg>
