<svg width="800" height="800" viewBox="0 0 800 800" fill="none" xmlns="http://www.w3.org/2000/svg">
<path d="M733.33 272.078V274.495C733.33 303.187 733.33 317.532 726.423 329.27C719.517 341.006 706.977 347.973 681.897 361.906L655.453 376.6C673.673 314.994 679.753 248.804 682.003 192.199C682.097 189.772 682.207 187.315 682.317 184.832L682.393 183.093C704.103 190.632 716.29 196.252 723.893 206.802C733.333 219.897 733.333 237.291 733.33 272.078Z" fill="#EABF03"/>
<path d="M66.6666 272.078V274.496C66.6676 303.187 66.668 317.533 73.5743 329.27C80.4806 341.007 93.021 347.974 118.102 361.907L144.56 376.607C126.336 315.001 120.256 248.808 118.008 192.199C117.912 189.772 117.803 187.315 117.694 184.833L117.617 183.089C95.9003 190.63 83.7086 196.251 76.1033 206.803C66.6653 219.898 66.6656 237.291 66.6666 272.078Z" fill="#D9AE05"/>
<path fill-rule="evenodd" clip-rule="evenodd" d="M545.903 78.225C508.437 71.9033 459.457 66.667 400.007 66.667C340.553 66.667 291.575 71.9033 254.106 78.225C216.148 84.6293 197.169 87.8317 181.312 107.361C165.455 126.891 166.293 148 167.969 190.216C173.723 335.147 204.999 516.17 375 532.19V650H327.327C311.437 650 297.757 661.217 294.641 676.797L288.333 708.334H200C186.193 708.334 175 719.527 175 733.334C175 747.14 186.193 758.334 200 758.334H600C613.807 758.334 625 747.14 625 733.334C625 719.527 613.807 708.334 600 708.334H511.667L505.36 676.797C502.243 661.217 488.563 650 472.673 650H425V532.19C595.01 516.177 626.287 335.15 632.04 190.216C633.717 148 634.557 126.891 618.697 107.361C602.84 87.8317 583.863 84.6293 545.903 78.225Z" fill="url(#paint0_linear_498_9)"/>
<defs>
<linearGradient id="paint0_linear_498_9" x1="400.005" y1="66.667" x2="400.005" y2="758.334" gradientUnits="userSpaceOnUse">
<stop stop-color="#FFD600"/>
<stop offset="1" stop-color="#AF8109"/>
</linearGradient>
</defs>
</svg>
